<?xml version="1.0" encoding="utf-8"?>
<!-- Generator: Adobe Illustrator 27.2.0, SVG Export Plug-In . SVG Version: 6.00 Build 0)  -->
<svg version="1.1" id="Layer_1" xmlns="http://www.w3.org/2000/svg" xmlns:xlink="http://www.w3.org/1999/xlink" x="0px" y="0px"
	 viewBox="0 0 255 255" style="enable-background:new 0 0 255 255;" xml:space="preserve">
<style type="text/css">
	.st0{fill:#232323;}
	.st1{fill:#3939B7;}
</style>
<g>
	<g>
		<circle class="st0" cx="63.4" cy="27.5" r="27.6"/>
	</g>
	<g>
		<path class="st0" d="M63.4,51.3c-30.9,0-55.9,18.4-55.9,41h111.8C119.3,69.7,94.2,51.3,63.4,51.3z"/>
	</g>
	<g>
		<circle class="st0" cx="191.4" cy="106.5" r="27.6"/>
	</g>
	<g>
		<path class="st0" d="M191.4,130.3c-30.9,0-55.9,18.4-55.9,41h111.8C247.3,148.7,222.2,130.3,191.4,130.3z"/>
	</g>
	<g>
		<g>
			<path class="st1" d="M7.5,184.7v54.7c0,6.1,5,11.1,11.1,11.1h89.6c6.1,0,11.1-5,11.1-11.1v-54.7H7.5z M49.2,201.2h28.3
				c4.7,0,8.5,3.8,8.5,8.5l0,0c0,4.7-3.8,8.5-8.5,8.5H49.2c-4.7,0-8.5-3.8-8.5-8.5l0,0C40.7,205,44.5,201.2,49.2,201.2z M79.9,233.1
				H46.7c-1.4,0-2.5-1.3-2.5-3l0,0c0-1.7,1.1-3,2.5-3h33.1c1.4,0,2.5,1.3,2.5,3l0,0C82.3,231.8,81.2,233.1,79.9,233.1z"/>
		</g>
	</g>
	<g>
		<g>
			<path class="st1" d="M7.5,105.7v65.8h111.8v-65.8H7.5z M49.2,122.2h28.3c4.7,0,8.5,3.8,8.5,8.5l0,0c0,4.7-3.8,8.5-8.5,8.5H49.2
				c-4.7,0-8.5-3.8-8.5-8.5l0,0C40.7,126,44.5,122.2,49.2,122.2z M79.9,154.1H46.7c-1.4,0-2.5-1.3-2.5-3l0,0c0-1.7,1.1-3,2.5-3h33.1
				c1.4,0,2.5,1.3,2.5,3l0,0C82.3,152.8,81.2,154.1,79.9,154.1z"/>
		</g>
	</g>
	<g>
		<g>
			<path class="st1" d="M135.5,185.7v54.7c0,6.1,5,11.1,11.1,11.1h89.6c6.1,0,11.1-5,11.1-11.1v-54.7H135.5z M177.2,202.2h28.3
				c4.7,0,8.5,3.8,8.5,8.5l0,0c0,4.7-3.8,8.5-8.5,8.5h-28.3c-4.7,0-8.5-3.8-8.5-8.5l0,0C168.7,206,172.5,202.2,177.2,202.2z
				 M207.9,234.1h-33.1c-1.4,0-2.5-1.3-2.5-3l0,0c0-1.7,1.1-3,2.5-3h33.1c1.4,0,2.5,1.3,2.5,3l0,0
				C210.3,232.8,209.2,234.1,207.9,234.1z"/>
		</g>
	</g>
</g>
</svg>
