<?xml version="1.0" encoding="utf-8"?>
<!-- Generator: Adobe Illustrator 27.2.0, SVG Export Plug-In . SVG Version: 6.00 Build 0)  -->
<svg version="1.1" id="Layer_1" xmlns="http://www.w3.org/2000/svg" xmlns:xlink="http://www.w3.org/1999/xlink" x="0px" y="0px"
	 viewBox="0 0 823 255" style="enable-background:new 0 0 823 255;" xml:space="preserve">
<style type="text/css">
	.st0{fill:#232323;}
	.st1{fill:#3939B7;}
</style>
<g>
	<g>
		<circle class="st0" cx="55.64" cy="27.49" r="27.59"/>
	</g>
	<g>
		<path class="st0" d="M55.64,51.29c-30.87,0-55.89,18.37-55.89,41.03h111.78C111.53,69.66,86.5,51.29,55.64,51.29z"/>
	</g>
	<g>
		<circle class="st0" cx="183.64" cy="106.49" r="27.59"/>
	</g>
	<g>
		<path class="st0" d="M183.64,130.29c-30.87,0-55.89,18.37-55.89,41.03h111.78C239.53,148.66,214.5,130.29,183.64,130.29z"/>
	</g>
	<g>
		<path class="st1" d="M262.79,123.1v-13.12l5.35-0.49c3.13-0.32,4.7-1.83,4.7-4.54V29.63l-9.23-0.49V15.37h78.25v26.89l-16.52,1.13
			v-6.48c0-1.83-0.27-3.13-0.81-3.89c-0.54-0.75-1.84-1.13-3.89-1.13H292.6v28.67h39.85v16.52H292.6v31.75l14.42,0.49v13.77H262.79z
			"/>
		<path class="st1" d="M416.36,44.85v60.26c0,1.73,0.3,2.92,0.89,3.56c0.59,0.65,1.65,1.03,3.16,1.13l5.18,0.32v12.96h-25.76v-9.4
			l-0.49-0.16c-5.4,7.78-12.8,11.66-22.19,11.66c-11.02,0-19.17-3.51-24.46-10.53c-5.29-7.02-7.94-16.63-7.94-28.84
			c0-14.69,3.56-26.14,10.69-34.34c7.13-8.21,17.82-12.31,32.08-12.31C396.71,39.18,406.32,41.08,416.36,44.85z M397.57,97.34V55.38
			c-3.02-1.4-7.18-2.11-12.47-2.11c-7.24,0-12.47,2.92-15.71,8.75c-3.24,5.83-4.86,13.55-4.86,23.17c0,17.5,5.61,26.24,16.85,26.24
			c4.75,0,8.64-1.43,11.66-4.29C396.06,104.28,397.57,101.02,397.57,97.34z"/>
		<path class="st1" d="M434.51,54.74V41.61h27.38v10.53c6.05-8.64,14.34-12.96,24.87-12.96s17.63,4.32,21.3,12.96
			c6.05-8.64,14.26-12.96,24.62-12.96c7.78,0,13.77,2.35,17.98,7.05s6.32,11.75,6.32,21.14v42.28l9.23,0.49v12.96h-38.56v-12.31
			l5.35-0.49c1.62-0.21,2.78-0.67,3.48-1.38c0.7-0.7,1.11-1.97,1.22-3.81V71.58c0-5.94-0.68-10.34-2.03-13.2
			c-1.35-2.86-4.51-4.29-9.48-4.29c-4.97,0-8.78,1.51-11.42,4.54c-2.65,3.02-3.97,7.07-3.97,12.15v38.88l8.91,0.49v12.96h-38.23
			v-12.31l5.35-0.49c1.62-0.21,2.81-0.67,3.56-1.38c0.75-0.7,1.13-2.03,1.13-3.97V71.58c0-5.94-0.68-10.34-2.03-13.2
			c-1.35-2.86-4.54-4.29-9.56-4.29c-5.02,0-8.83,1.57-11.42,4.7c-2.59,3.13-3.89,7.02-3.89,11.66v39.2l8.75,0.49v12.96h-38.23
			v-12.31l5.35-0.49c1.62-0.21,2.81-0.67,3.56-1.38c0.75-0.7,1.13-2.03,1.13-3.97h0.16V60.24c0-1.83-0.3-3.1-0.89-3.81
			c-0.59-0.7-1.65-1.11-3.16-1.21L434.51,54.74z"/>
		<path class="st1" d="M605.09,41.61v68.04l9.23,0.49v12.96h-38.56v-12.31l5.35-0.49c3.13-0.32,4.7-2.05,4.7-5.18V60.08
			c0-1.84-0.3-3.08-0.89-3.73c-0.59-0.65-1.65-0.97-3.16-0.97l-5.67-0.32V41.61H605.09z M584.68,27.6c-2.27-2.21-3.4-5.05-3.4-8.5
			c0-3.46,1.13-6.34,3.4-8.67c2.27-2.32,5.24-3.48,8.91-3.48c3.67,0,6.67,1.16,8.99,3.48c2.32,2.32,3.48,5.21,3.48,8.67
			c0,3.46-1.16,6.29-3.48,8.5c-2.32,2.21-5.32,3.32-8.99,3.32C589.92,30.92,586.95,29.82,584.68,27.6z"/>
		<path class="st1" d="M652.72,7.59v102.06l9.23,0.49v12.96H623.4v-12.31l5.35-0.49c3.13-0.32,4.7-2.05,4.7-5.18V25.25
			c0-2.37-1.35-3.67-4.05-3.89l-5.67-0.32V7.59H652.72z"/>
		<path class="st1" d="M726.75,120.02v-12.31c-5.94,8.42-14.69,12.64-26.24,12.64c-16.74,0-25.11-9.34-25.11-28.03V59.76
			c0-2.92-1.35-4.43-4.05-4.54l-5.18-0.32V41.61h28.51v46.49c0,5.73,0.81,10.04,2.43,12.96c1.62,2.92,4.97,4.37,10.04,4.37
			c5.08,0,9.15-1.56,12.23-4.7c3.08-3.13,4.62-6.91,4.62-11.34V60.08c0-1.84-0.3-3.1-0.89-3.81c-0.6-0.7-1.65-1.05-3.16-1.05
			l-5.18-0.32V41.61h28.51v78.41c0,13.07-3.16,22.62-9.48,28.67c-6.32,6.05-15.88,9.07-28.67,9.07s-22.76-1.78-29.89-5.35V129.9
			l15.39-1.3v7.78c0,2.92,1.35,4.88,4.05,5.91c2.7,1.02,6.42,1.54,11.18,1.54C719.79,143.84,726.75,135.9,726.75,120.02z"/>
	</g>
	<g>
		<g>
			<path class="st1" d="M-0.25,184.7v54.71c0,6.12,4.96,11.08,11.08,11.08h89.62c6.12,0,11.08-4.96,11.08-11.08V184.7H-0.25z
				 M41.49,201.17h28.29c4.69,0,8.49,3.8,8.49,8.49v0c0,4.69-3.8,8.49-8.49,8.49H41.49c-4.69,0-8.49-3.8-8.49-8.49v0
				C33,204.97,36.8,201.17,41.49,201.17z M72.13,233.14H39.01c-1.37,0-2.48-1.34-2.48-3l0,0c0-1.66,1.11-3,2.48-3h33.12
				c1.37,0,2.48,1.34,2.48,3l0,0C74.61,231.8,73.5,233.14,72.13,233.14z"/>
		</g>
	</g>
	<g>
		<g>
			<path class="st1" d="M-0.25,105.7v65.79h111.78V105.7H-0.25z M41.49,122.17h28.29c4.69,0,8.49,3.8,8.49,8.49v0
				c0,4.69-3.8,8.49-8.49,8.49H41.49c-4.69,0-8.49-3.8-8.49-8.49v0C33,125.97,36.8,122.17,41.49,122.17z M72.13,154.14H39.01
				c-1.37,0-2.48-1.34-2.48-3l0,0c0-1.66,1.11-3,2.48-3h33.12c1.37,0,2.48,1.34,2.48,3l0,0C74.61,152.8,73.5,154.14,72.13,154.14z"
				/>
		</g>
	</g>
	<g>
		<g>
			<path class="st1" d="M127.75,185.7v54.71c0,6.12,4.96,11.08,11.08,11.08h89.62c6.12,0,11.08-4.96,11.08-11.08V185.7H127.75z
				 M169.49,202.17h28.29c4.69,0,8.49,3.8,8.49,8.49v0c0,4.69-3.8,8.49-8.49,8.49h-28.29c-4.69,0-8.49-3.8-8.49-8.49v0
				C161,205.97,164.8,202.17,169.49,202.17z M200.13,234.14h-33.12c-1.37,0-2.48-1.34-2.48-3l0,0c0-1.66,1.11-3,2.48-3h33.12
				c1.37,0,2.48,1.34,2.48,3l0,0C202.61,232.8,201.5,234.14,200.13,234.14z"/>
		</g>
	</g>
	<g>
		<path class="st0" d="M279.82,234.71l26.08-75.49l-10.21-0.97v-13.12h37.1l33.05,93.47H366l9.23,0.49v13.77h-41.8v-13.12l6.16-0.49
			c1.84-0.21,3.08-0.65,3.73-1.3c0.65-0.65,0.7-1.83,0.16-3.56l-3.4-10.04h-37.91l-4.86,14.26l9.72,0.49v13.77h-37.42v-13.12
			l5.35-0.49C277.23,239.03,278.85,237.52,279.82,234.71z M321.13,163.27l-15.07,46.17h30.13l-14.58-46.17H321.13z"/>
		<path class="st0" d="M391.44,234.71v-44.87c0-1.73-0.3-2.94-0.89-3.64c-0.59-0.7-1.65-1.11-3.16-1.21l-6.8-0.49v-13.12h27.38
			v12.15c1.94-4.21,4.97-7.7,9.07-10.45c4.1-2.75,8.83-4.13,14.18-4.13c5.35,0,10.45,1.19,15.31,3.56v24.14l-15.07,1.13v-7.45
			c0-2.16-0.54-3.51-1.62-4.05c-1.19-0.54-2.65-0.81-4.37-0.81c-4.32,0-7.86,1.54-10.61,4.62c-2.75,3.08-4.13,6.99-4.13,11.75v37.58
			l14.09,0.65v12.8h-43.42v-12.31l5.35-0.49c1.62-0.22,2.81-0.67,3.56-1.38C391.06,237.98,391.44,236.65,391.44,234.71z"/>
		<path class="st0" d="M478.59,232.6c3.46,5.08,8.45,7.61,14.99,7.61c6.53,0,12.99-2.32,19.36-6.97l6.97,12.47
			c-7.67,6.26-17.28,9.4-28.84,9.4c-11.56,0-20.66-3.64-27.3-10.93c-6.64-7.29-9.96-18.06-9.96-32.32s3.81-24.97,11.42-32.16
			c7.61-7.18,16.2-10.77,25.76-10.77c9.56,0,18.44,2.21,26.65,6.64v21.06l-14.9,1.13V190c0-2.92-1.05-4.72-3.16-5.43
			c-2.11-0.7-4.29-1.05-6.56-1.05c-13.07,0-19.6,9.23-19.6,27.7C473.41,220.4,475.13,227.53,478.59,232.6z"/>
		<path class="st0" d="M538.69,234.71v-78.89c0-1.73-0.3-2.92-0.89-3.56c-0.59-0.65-1.65-1.02-3.16-1.13l-5.67-0.32v-13.45h28.84
			v43.58c5.61-7.99,13.5-11.99,23.65-11.99c8.21,0,14.55,2.35,19.04,7.05c4.48,4.7,6.72,11.75,6.72,21.14v42.28l9.23,0.49v12.96
			H577.9v-12.31l5.35-0.49c1.62-0.22,2.81-0.67,3.56-1.38c0.75-0.7,1.13-2.03,1.13-3.97v-33.37c0-5.61-0.89-9.93-2.67-12.96
			c-1.78-3.02-5.24-4.54-10.37-4.54c-5.13,0-9.23,1.59-12.31,4.78c-3.08,3.19-4.62,7.05-4.62,11.58v39.2l9.23,0.49v12.96h-38.56
			v-12.31l5.35-0.49c1.62-0.22,2.81-0.67,3.56-1.38C538.31,237.98,538.69,236.65,538.69,234.71z"/>
		<path class="st0" d="M654.36,171.37v68.04l9.23,0.49v12.96h-38.56v-12.31l5.35-0.49c3.13-0.32,4.7-2.05,4.7-5.18v-45.04
			c0-1.83-0.3-3.08-0.89-3.73c-0.59-0.65-1.65-0.97-3.16-0.97l-5.67-0.32v-13.45H654.36z M633.95,157.35
			c-2.27-2.21-3.4-5.05-3.4-8.5c0-3.46,1.13-6.34,3.4-8.67c2.27-2.32,5.24-3.48,8.91-3.48c3.67,0,6.67,1.16,8.99,3.48
			c2.32,2.32,3.48,5.21,3.48,8.67c0,3.46-1.16,6.29-3.48,8.5c-2.32,2.21-5.32,3.32-8.99,3.32
			C639.18,160.67,636.21,159.57,633.95,157.35z"/>
		<path class="st0" d="M719,171.37h34.18V184l-5.02,0.32c-2.16,0.22-3.62,1.51-4.37,3.89l-20.9,64.64H698.1l-22.68-64.48
			c-0.54-1.51-1.11-2.54-1.7-3.08c-0.59-0.54-1.59-0.86-3-0.97l-4.7-0.32v-12.64h38.07v12.96l-9.88,0.49l16.69,53.3h0.32l16.2-53.3
			l-8.42-0.49V171.37z"/>
		<path class="st0" d="M795.95,168.94c8.1,0,14.52,1.97,19.28,5.91c4.75,3.94,7.13,9.48,7.13,16.6c0,4.75-1.03,8.94-3.08,12.56
			c-2.05,3.62-4.59,6.45-7.61,8.5c-3.03,2.05-6.7,3.73-11.02,5.02c-7.24,2.16-15.39,3.24-24.46,3.24
			c0.32,5.73,2.11,10.34,5.35,13.85c3.24,3.51,8.21,5.27,14.9,5.27c6.7,0,13.39-2.38,20.09-7.13l6.16,13.12
			c-2.16,1.94-5.81,3.94-10.93,5.99c-5.13,2.05-10.99,3.08-17.58,3.08c-13.18,0-22.84-3.64-29-10.93
			c-6.16-7.29-9.23-17.31-9.23-30.05c0-12.74,3.51-23.43,10.53-32.08C773.48,173.26,783.31,168.94,795.95,168.94z M788.58,205.95
			c3.94-0.7,7.59-2.27,10.93-4.7c3.35-2.43,5.02-5.32,5.02-8.67c0-6.59-3.24-9.88-9.72-9.88c-6.05,0-10.69,2.41-13.93,7.21
			c-3.24,4.81-5.02,10.56-5.35,17.25C780.29,207.06,784.63,206.66,788.58,205.95z"/>
	</g>
</g>
</svg>
