<?xml version="1.0" encoding="UTF-8"?>
<svg id="Layer_1" data-name="Layer 1" xmlns="http://www.w3.org/2000/svg" viewBox="0 0 322.58 127.88">
  <g>
    <path d="m108.21,49.5l-.36-1.92c.88-.56,1.82-1.07,2.82-1.53,1-.46,2.04-.89,3.12-1.29l.06,4.74h-5.64Zm6.9-35.52l-6.84-.9.06-3.06h6.78v3.96Zm-2.4,35.52V10.02h9.12v39.48h-9.12Zm25.38-33.66l-17.76-1.26-4.5-4.56h23.82l-1.56,5.82Zm-17.52,33.66l.18-4.26,8.28,1.2-.06,3.06h-8.4Zm14.7-15.42l-14.4-.66v-4.62l14.4-1.02v6.3Zm-1.62-12.42l-1.68-10.02,7.68-1.62c.04.76.04,1.82,0,3.18-.04,1.36-.14,2.78-.3,4.26-.16,1.48-.38,2.88-.66,4.2h-5.04Z"/>
    <path d="m150.63,50.28c-2.32.32-4.27.12-5.85-.6-1.58-.72-2.76-1.72-3.54-3-.78-1.28-1.17-2.56-1.17-3.84,0-1.2.36-2.43,1.08-3.69.72-1.26,1.9-2.31,3.54-3.15l13.26-.36-.12,3.6h-1.44c-.84-.08-1.71-.09-2.61-.03-.9.06-1.72.2-2.46.42-.74.22-1.35.55-1.83.99-.48.44-.72,1.04-.72,1.8,0,.44.11.91.33,1.41.22.5.53.91.93,1.23.88-.04,1.79-.17,2.73-.39.94-.22,1.82-.49,2.64-.81.82-.32,1.51-.58,2.07-.78l.54,2.52-7.38,4.68Zm12,.18c-.68,0-1.4-.23-2.16-.69-.76-.46-1.47-1.07-2.13-1.83-.66-.76-1.17-1.62-1.53-2.58l-.6-.48v-14.46c0-1.88-.26-3.27-.78-4.17-.52-.9-1.2-1.57-2.04-2.01-.76.04-1.56.14-2.4.3-.84.16-1.54.34-2.1.54l-1.08,6.48-5.04.12c-.48-1.24-.83-2.61-1.05-4.11-.22-1.5-.29-2.95-.21-4.35,1.16-.48,2.44-.94,3.84-1.38,1.4-.44,2.8-.83,4.2-1.17,1.4-.34,2.71-.61,3.93-.81,1.22-.2,2.21-.3,2.97-.3,1.04,0,2.04.18,3,.54s1.86.87,2.7,1.53c.84.66,1.54,1.41,2.1,2.25.28.48.47,1.16.57,2.04.1.88.15,2.26.15,4.14v12.84c0,.4.13.73.39.99.26.26.63.39,1.11.39.44,0,.9-.04,1.38-.12.48-.08,1-.16,1.56-.24l.54,2.7-7.32,3.84Z"/>
    <path d="m171.51,24.84l-.42-2.88c1.6-.6,3.33-1.08,5.19-1.44s3.69-.58,5.49-.66l.24,3.36-3.9,2.4-6.6-.78Zm.3,24.66l-.18-2.04c1-.6,2.15-1.13,3.45-1.59,1.3-.46,2.47-.81,3.51-1.05l-.66,4.68h-6.12Zm4.2,0v-26.76l5.76-2.88,3,2.94v26.7h-8.76Zm17.88,0v-17.28c0-2.04-.37-3.54-1.11-4.5-.74-.96-1.71-1.42-2.91-1.38-.88,0-1.85.23-2.91.69-1.06.46-2.13,1.03-3.21,1.71-1.08.68-2.1,1.38-3.06,2.1l-.54-1.86c1.72-1.56,3.45-2.96,5.19-4.2,1.74-1.24,3.4-2.26,4.98-3.06,1.58-.8,2.97-1.36,4.17-1.68.76.04,1.6.22,2.52.54.92.32,1.82.78,2.7,1.38s1.58,1.36,2.1,2.28c.2.32.36.76.48,1.32.12.56.2,1.32.24,2.28s.06,2.24.06,3.84v17.82h-8.7Zm-13.44,0l1.02-5.46c1.2.24,2.41.57,3.63.99,1.22.42,2.31.93,3.27,1.53l-.24,2.94h-7.68Zm10.32,0l-.18-2.04c1-.6,2.16-1.13,3.48-1.59,1.32-.46,2.48-.81,3.48-1.05l-.66,4.68h-6.12Zm21,0v-17.28c0-2.04-.37-3.54-1.11-4.5-.74-.96-1.71-1.42-2.91-1.38-.88,0-1.85.23-2.91.69-1.06.46-2.13,1.03-3.21,1.71-1.08.68-2.1,1.38-3.06,2.1l-.54-1.86c1.72-1.56,3.45-2.96,5.19-4.2,1.74-1.24,3.4-2.26,4.98-3.06,1.58-.8,2.97-1.36,4.17-1.68.76.04,1.6.22,2.52.54.92.32,1.82.78,2.7,1.38.88.6,1.58,1.36,2.1,2.28.2.32.36.76.48,1.32.12.56.2,1.32.24,2.28.04.96.06,2.24.06,3.84v17.82h-8.7Zm-13.44,0l1.02-5.46c1.2.24,2.43.57,3.69.99,1.26.42,2.37.93,3.33,1.53l-.24,2.94h-7.8Zm10.38,0l-.18-2.04c1-.6,2.15-1.13,3.45-1.59,1.3-.46,2.45-.81,3.45-1.05l-.66,4.68h-6.06Zm7.74,0l1.02-5.46c1.16.24,2.46.57,3.9.99,1.44.42,2.64.93,3.6,1.53l-.24,2.94h-8.28Z"/>
    <path d="m226.89,24.84l-.42-2.88c1.6-.6,3.33-1.08,5.19-1.44s3.69-.58,5.49-.66l.24,3.36-3.9,2.4-6.6-.78Zm.12,24.66l-.18-2.04c1-.6,2.16-1.13,3.48-1.59,1.32-.46,2.48-.81,3.48-1.05l-.66,4.68h-6.12Zm9.24-33.48c-1.16-.52-2.31-1.22-3.45-2.1-1.14-.88-2.11-1.8-2.91-2.76.64-1.28,1.42-2.48,2.34-3.6.92-1.12,1.88-2.04,2.88-2.76,1.16.6,2.28,1.38,3.36,2.34s1.96,1.94,2.64,2.94c-.52,1.16-1.22,2.27-2.1,3.33-.88,1.06-1.8,1.93-2.76,2.61Zm-4.86,33.48v-26.76l5.76-2.88,3,2.64v27h-8.76Zm4.68,0l1.02-5.46c1.2.24,2.49.57,3.87.99,1.38.42,2.55.93,3.51,1.53l-.24,2.94h-8.16Z"/>
    <path d="m246.39,10.38l-.42-2.94c1.6-.6,3.33-1.08,5.19-1.44,1.86-.36,3.69-.58,5.49-.66l.24,3.36-3.9,2.4-6.6-.72Zm.12,39.12l-.18-2.04c1-.6,2.16-1.13,3.48-1.59,1.32-.46,2.48-.81,3.48-1.05l-.66,4.68h-6.12Zm4.38,0V8.22l5.76-2.88,3,2.7v41.46h-8.76Zm4.68,0l1.02-5.46c1.2.24,2.49.57,3.87.99,1.38.42,2.55.93,3.51,1.53l-.24,2.94h-8.16Z"/>
    <path d="m273.87,28.26l-9.66-4.14.06-3.12h11.76l-2.16,7.26Zm-.84,34.8l-4.62-8.1c2.32-.8,4.54-1.68,6.66-2.64s4.14-2.08,6.06-3.36c-.88-.24-1.73-.51-2.55-.81-.82-.3-1.65-.63-2.49-.99l-9.06-24.84,9-1.32,4.74,15.42.66,5.46h1.02c.64-2.08,1.27-4.32,1.89-6.72.62-2.4,1.19-4.82,1.71-7.26.52-2.44.96-4.74,1.32-6.9h9.12c-.72,2.52-1.49,5.16-2.31,7.92-.82,2.76-1.66,5.52-2.52,8.28-.86,2.76-1.77,5.38-2.73,7.86-1,2.44-2.19,4.73-3.57,6.87-1.38,2.14-3.06,4.12-5.04,5.94-1.98,1.82-4.41,3.55-7.29,5.19Zm2.4-37.2l-3.24-4.86h7.98l.24,2.7c-.76.4-1.57.78-2.43,1.14-.86.36-1.71.7-2.55,1.02Zm17.46,2.4l-9.66-4.14.06-3.12h11.76l-2.16,7.26Zm.66-2.4l-3.24-4.86h7.98l.24,2.7c-.76.4-1.57.78-2.43,1.14-.86.36-1.71.7-2.55,1.02Z"/>
    <path d="m105.45,99.5l-.36-1.92c.88-.56,1.82-1.07,2.82-1.53,1-.46,2.04-.89,3.12-1.29l.06,4.74h-5.64Zm2.82,0l15.72-38.52,5.04,1.32-14.16,37.2h-6.6Zm5.16,0l.18-4.26,8.28,1.2-.06,3.06h-8.4Zm3.84-10.86v-4.62h18.72v4.62h-18.72Zm20.1,10.86l-14.76-38.76,7.86-2.16,16.62,40.92h-9.72Zm-6.48,0l-.36-1.92c.88-.56,1.83-1.07,2.85-1.53,1.02-.46,2.05-.89,3.09-1.29l1.92,4.74h-7.5Zm10.56,0l.18-4.26,8.28,1.2-.06,3.06h-8.4Z"/>
    <path d="m150.45,74.84l-.42-2.88c1.6-.6,3.33-1.08,5.19-1.44s3.69-.58,5.49-.66l.24,3.36-3.9,2.4-6.6-.78Zm.24,24.66l-.18-2.04c1-.6,2.16-1.13,3.48-1.59,1.32-.46,2.48-.81,3.48-1.05l-.66,4.68h-6.12Zm4.26,0v-26.76l5.76-2.88,3,2.88v26.76h-8.76Zm6-13.14l-1.32-4.74,10.14-10.86c1.4-.56,2.78-.75,4.14-.57,1.36.18,2.52.65,3.48,1.41.04.76.02,1.65-.06,2.67-.08,1.02-.19,2.08-.33,3.18-.14,1.1-.34,2.17-.6,3.21-.26,1.04-.53,1.98-.81,2.82h-4.8l-1.08-6.84c-1,.6-1.99,1.34-2.97,2.22-.98.88-1.96,1.93-2.94,3.15-.98,1.22-1.93,2.67-2.85,4.35Zm.54,13.14l1.02-5.22c.8.12,1.66.29,2.58.51.92.22,1.83.48,2.73.78.9.3,1.67.63,2.31.99l-.24,2.94h-8.4Z"/>
    <path d="m195.15,100.28c-2.32.28-4.49.11-6.51-.51-2.02-.62-3.78-1.61-5.28-2.97-1.5-1.36-2.67-3.02-3.51-4.98-.84-1.96-1.26-4.14-1.26-6.54,0-3.12.64-5.84,1.92-8.16,1.28-2.32,3.04-4.13,5.28-5.43,2.24-1.3,4.74-1.95,7.5-1.95,1.6,0,3.11.24,4.53.72s2.69,1.2,3.81,2.16c1.12.96,2,2.18,2.64,3.66l-6.54,4.5c-1.08-1.48-2.24-2.75-3.48-3.81-1.24-1.06-2.56-1.83-3.96-2.31-1.16,1.32-1.98,2.79-2.46,4.41-.48,1.62-.72,3.19-.72,4.71,0,2.04.34,3.87,1.02,5.49.68,1.62,1.68,2.89,3,3.81,1.32.92,2.92,1.38,4.8,1.38,1,0,2.04-.14,3.12-.42,1.08-.28,2.2-.68,3.36-1.2l1.26,3-8.52,4.44Z"/>
    <path d="m205.59,60.38l-.42-2.94c1.6-.6,3.33-1.08,5.19-1.44s3.69-.58,5.49-.66l.24,3.36-3.9,2.4-6.6-.72Zm.24,39.12l-.18-2.04c1-.6,2.15-1.13,3.45-1.59,1.3-.46,2.45-.81,3.45-1.05l-.66,4.68h-6.06Zm4.26,0v-41.28l5.76-2.88,3,2.7v41.46h-8.76Zm18.12,0v-17.28c0-2.04-.37-3.54-1.11-4.5-.74-.96-1.71-1.42-2.91-1.38-.88,0-1.85.23-2.91.69-1.06.46-2.13,1.03-3.21,1.71-1.08.68-2.1,1.38-3.06,2.1l-.54-1.86c1.72-1.56,3.45-2.96,5.19-4.2,1.74-1.24,3.4-2.26,4.98-3.06,1.58-.8,2.97-1.36,4.17-1.68.76.04,1.6.22,2.52.54.92.32,1.82.78,2.7,1.38s1.58,1.36,2.1,2.28c.2.32.36.76.48,1.32.12.56.2,1.32.24,2.28.04.96.06,2.24.06,3.84v17.82h-8.7Zm-13.74,0l1.02-5.46c1.2.24,2.41.57,3.63.99s2.31.93,3.27,1.53l-.24,2.94h-7.68Zm10.38,0l-.18-2.04c1-.6,2.15-1.13,3.45-1.59,1.3-.46,2.47-.81,3.51-1.05l-.66,4.68h-6.12Zm8.28,0l1.02-5.46c1.16.24,2.35.57,3.57.99,1.22.42,2.31.93,3.27,1.53l-.18,2.94h-7.68Z"/>
    <path d="m242.96,74.84l-.42-2.88c1.6-.6,3.33-1.08,5.19-1.44s3.69-.58,5.49-.66l.24,3.36-3.9,2.4-6.6-.78Zm.12,24.66l-.18-2.04c1-.6,2.16-1.13,3.48-1.59,1.32-.46,2.48-.81,3.48-1.05l-.66,4.68h-6.12Zm9.24-33.48c-1.16-.52-2.31-1.22-3.45-2.1-1.14-.88-2.11-1.8-2.91-2.76.64-1.28,1.42-2.48,2.34-3.6.92-1.12,1.88-2.04,2.88-2.76,1.16.6,2.28,1.38,3.36,2.34s1.96,1.94,2.64,2.94c-.52,1.16-1.22,2.27-2.1,3.33-.88,1.06-1.8,1.93-2.76,2.61Zm-4.86,33.48v-26.76l5.76-2.88,3,2.64v27h-8.76Zm4.68,0l1.02-5.46c1.2.24,2.49.57,3.87.99s2.55.93,3.51,1.53l-.24,2.94h-8.16Z"/>
    <path d="m269.61,78.26l-9.42-4.14.06-3.12h11.52l-2.16,7.26Zm2.88,21.42l-9.96-27.72,9.24-.96,4.98,15.96.84,5.22h1.08c.56-2.24,1.1-4.57,1.62-6.99.52-2.42,1.01-4.85,1.47-7.29.46-2.44.87-4.74,1.23-6.9h9.48c-1.8,4.56-3.61,9.28-5.43,14.16s-3.71,9.6-5.67,14.16c-.76.24-1.69.42-2.79.54-1.1.12-2.19.16-3.27.12s-2.02-.14-2.82-.3Zm-1.2-23.82l-3.18-4.86h7.74l.18,2.7c-.72.4-1.47.78-2.25,1.14-.78.36-1.61.7-2.49,1.02Zm17.16,2.4l-9.42-4.14.06-3.12h11.52l-2.16,7.26Zm.78-2.4l-3.18-4.86h7.74l.18,2.7c-.72.4-1.47.78-2.25,1.14-.78.36-1.61.7-2.49,1.02Z"/>
    <path d="m311.42,100.28c-2.44.24-4.7.04-6.78-.6-2.08-.64-3.89-1.62-5.43-2.94-1.54-1.32-2.73-2.92-3.57-4.8-.84-1.88-1.26-3.98-1.26-6.3s.38-4.33,1.14-6.27c.76-1.94,1.82-3.63,3.18-5.07,1.36-1.44,2.94-2.56,4.74-3.36,1.8-.8,3.72-1.2,5.76-1.2,1.52,0,3.01.24,4.47.72,1.46.48,2.79,1.22,3.99,2.22,1.2,1,2.14,2.26,2.82,3.78.68,1.52,1.02,3.3,1.02,5.34l-7.98,1.26c.2-1.48.05-2.89-.45-4.23-.5-1.34-1.27-2.43-2.31-3.27s-2.26-1.26-3.66-1.26c-1.04.6-1.88,1.46-2.52,2.58-.64,1.12-1.11,2.34-1.41,3.66s-.45,2.6-.45,3.84c0,2.16.4,3.98,1.2,5.46.8,1.48,1.9,2.61,3.3,3.39,1.4.78,2.96,1.17,4.68,1.17,1.24,0,2.48-.19,3.72-.57,1.24-.38,2.56-.91,3.96-1.59l1.26,3.18-9.42,4.86Zm6.6-15.06l-17.28-.18-.48-3.9,17.64-1.02,3.6,1.68-3.48,3.42Z"/>
  </g>
  <path d="m93.39,7.9c-1.04-1.01-2.46-1.63-4.03-1.63h-21.67c-3.2,0-5.8,2.6-5.8,5.8v6.49c0,2.39,1.46,4.45,3.53,5.34,1.04,1.01,2.46,1.63,4.03,1.63h21.67c3.2,0,5.8-2.6,5.8-5.8v-6.49c0-2.39-1.46-4.45-3.53-5.34Zm-27.42,11.83v-6.49c0-1.91,1.56-3.47,3.47-3.47h21.67c.33,0,.65.05.95.14.48.59.76,1.34.76,2.16v6.49c0,1.91-1.56,3.47-3.47,3.47h-21.67c-.33,0-.65-.05-.95-.14-.48-.59-.76-1.34-.76-2.16Z"/>
  <path d="m51.94,7.9c-1.04-1.01-2.46-1.63-4.03-1.63h-21.67c-3.2,0-5.8,2.6-5.8,5.8v6.49c0,2.39,1.46,4.45,3.53,5.34,1.04,1.01,2.46,1.63,4.03,1.63h21.67c3.2,0,5.8-2.6,5.8-5.8v-6.49c0-2.39-1.46-4.45-3.53-5.34Zm-27.42,11.83v-6.49c0-1.91,1.56-3.47,3.47-3.47h21.67c.33,0,.65.05.95.14.48.59.76,1.34.76,2.16v6.49c0,1.91-1.56,3.47-3.47,3.47h-21.67c-.33,0-.65-.05-.95-.14-.48-.59-.76-1.34-.76-2.16Z"/>
  <path d="m78.79,31.83c-1.04-1.01-2.46-1.63-4.03-1.63h-21.67c-3.2,0-5.8,2.6-5.8,5.8v6.49c0,2.39,1.46,4.45,3.53,5.34,1.04,1.01,2.46,1.63,4.03,1.63h21.67c3.2,0,5.8-2.6,5.8-5.8v-6.49c0-2.39-1.46-4.45-3.53-5.34Zm-27.42,11.83v-6.49c0-1.91,1.56-3.47,3.47-3.47h21.67c.33,0,.65.05.95.14.48.59.76,1.34.76,2.16v6.49c0,1.91-1.56,3.47-3.47,3.47h-21.67c-.33,0-.65-.05-.95-.14-.48-.59-.76-1.34-.76-2.16Z"/>
  <path d="m51.94,55.77c-1.04-1.01-2.46-1.63-4.03-1.63h-21.67c-3.2,0-5.8,2.6-5.8,5.8v6.49c0,2.39,1.46,4.45,3.53,5.34,1.04,1.01,2.46,1.63,4.03,1.63h21.67c3.2,0,5.8-2.6,5.8-5.8v-6.49c0-2.39-1.46-4.45-3.53-5.34Zm-27.42,11.83v-6.49c0-1.91,1.56-3.47,3.47-3.47h21.67c.33,0,.65.05.95.14.48.59.76,1.34.76,2.16v6.49c0,1.91-1.56,3.47-3.47,3.47h-21.67c-.33,0-.65-.05-.95-.14-.48-.59-.76-1.34-.76-2.16Z"/>
  <path d="m72.13,82.63c-1.04-1.01-2.46-1.63-4.03-1.63h-21.67c-3.2,0-5.8,2.6-5.8,5.8v6.49c0,2.39,1.46,4.45,3.53,5.34,1.04,1.01,2.46,1.63,4.03,1.63h21.67c3.2,0,5.8-2.6,5.8-5.8v-6.49c0-2.39-1.46-4.45-3.53-5.34Zm-27.42,11.83v-6.49c0-1.91,1.56-3.47,3.47-3.47h21.67c.33,0,.65.05.95.14.48.59.76,1.34.76,2.16v6.49c0,1.91-1.56,3.47-3.47,3.47h-21.67c-.33,0-.65-.05-.95-.14-.48-.59-.76-1.34-.76-2.16Z"/>
  <path d="m31.5,82.63c-1.04-1.01-2.46-1.63-4.03-1.63H5.8c-3.2,0-5.8,2.6-5.8,5.8v6.49c0,2.39,1.46,4.45,3.53,5.34,1.04,1.01,2.46,1.63,4.03,1.63h21.67c3.2,0,5.8-2.6,5.8-5.8v-6.49c0-2.39-1.46-4.45-3.53-5.34Zm-27.42,11.83v-6.49c0-1.91,1.56-3.47,3.47-3.47h21.67c.33,0,.65.05.95.14.48.59.76,1.34.76,2.16v6.49c0,1.91-1.56,3.47-3.47,3.47H5.8c-.33,0-.65-.05-.95-.14-.48-.59-.76-1.34-.76-2.16Z"/>
  <rect x="36.72" y="23.89" width="2.94" height="31.33"/>
  <rect x="53.36" y="14.1" width="10.77" height="2.94"/>
  <rect x="38.68" y="38.58" width="11.75" height="2.94"/>
  <rect x="15.58" y="75.78" width="23.68" height="2.94" transform="translate(-34.72 23.78) rotate(-29.74)"/>
  <rect x="47.7" y="65.33" width="2.94" height="23.68" transform="translate(-42.23 81.57) rotate(-60.26)"/>
</svg>